<?xml version="1.0"?>
<!DOCTYPE svg PUBLIC "-//W3C//DTD SVG 1.0//EN" "http://www.w3.org/TR/2001/REC-SVG-20010904/DTD/svg10.dtd">
<svg xmlns="http://www.w3.org/2000/svg" xmlns:xlink="http://www.w3.org/1999/xlink" xmlns:jfreesvg="http://www.jfree.org/jfreesvg/svg" width="275" height="189" text-rendering="auto" shape-rendering="auto">
<defs></defs>
<line x1="0" y1="0" x2="77599" y2="0" style="stroke-width: 200.0;stroke: rgb(0,0,0);stroke-opacity: 1.0;stroke-linecap: round;stroke-linejoin: round;" transform="matrix(0.0035433071,0,0,0.0035433071,0,0)" /><line x1="77600" y1="0" x2="77600" y2="53079" style="stroke-width: 200.0;stroke: rgb(0,0,0);stroke-opacity: 1.0;stroke-linecap: round;stroke-linejoin: round;" transform="matrix(0.0035433071,0,0,0.0035433071,0,0)" /><line x1="77600" y1="53080" x2="1" y2="53080" style="stroke-width: 200.0;stroke: rgb(0,0,0);stroke-opacity: 1.0;stroke-linecap: round;stroke-linejoin: round;" transform="matrix(0.0035433071,0,0,0.0035433071,0,0)" /><line x1="0" y1="53080" x2="0" y2="1" style="stroke-width: 200.0;stroke: rgb(0,0,0);stroke-opacity: 1.0;stroke-linecap: round;stroke-linejoin: round;" transform="matrix(0.0035433071,0,0,0.0035433071,0,0)" /><ellipse cx="127" cy="438" rx="2" ry="2" style="fill: rgb(0,0,255); fill-opacity: 1.0" transform="matrix(0.1417322835,0,0,0.1417322835,17.7165354375,17.7165354375)" /><ellipse cx="127" cy="592" rx="2" ry="2" style="fill: rgb(0,0,255); fill-opacity: 1.0" transform="matrix(0.1417322835,0,0,0.1417322835,17.7165354375,17.7165354375)" /><ellipse cx="127" cy="131" rx="2" ry="2" style="fill: rgb(0,0,255); fill-opacity: 1.0" transform="matrix(0.1417322835,0,0,0.1417322835,17.7165354375,17.7165354375)" /><ellipse cx="1313" cy="444" rx="2" ry="2" style="fill: rgb(0,0,255); fill-opacity: 1.0" transform="matrix(0.1417322835,0,0,0.1417322835,17.7165354375,17.7165354375)" /><rect x="484" y="437" width="2" height="2" style="fill: rgb(0,0,255); fill-opacity: 1.0" transform="matrix(0.1417322835,0,0,0.1417322835,17.7165354375,17.7165354375)" /><rect x="484" y="437" width="2" height="2" style="fill: rgb(0,0,255); fill-opacity: 1.0" transform="matrix(0.1417322835,0,0,0.1417322835,17.7165354375,17.7165354375)" /><rect x="484" y="437" width="2" height="2" style="fill: rgb(0,0,255); fill-opacity: 1.0" transform="matrix(0.1417322835,0,0,0.1417322835,17.7165354375,17.7165354375)" /><rect x="484" y="437" width="2" height="2" style="fill: rgb(0,0,255); fill-opacity: 1.0" transform="matrix(0.1417322835,0,0,0.1417322835,17.7165354375,17.7165354375)" /><rect x="484" y="437" width="2" height="2" style="fill: rgb(0,0,255); fill-opacity: 1.0" transform="matrix(0.1417322835,0,0,0.1417322835,17.7165354375,17.7165354375)" /><rect x="484" y="437" width="2" height="2" style="fill: rgb(0,0,255); fill-opacity: 1.0" transform="matrix(0.1417322835,0,0,0.1417322835,17.7165354375,17.7165354375)" /><rect x="484" y="437" width="64" height="2" style="fill: rgb(0,0,255); fill-opacity: 1.0" transform="matrix(0.1417322835,0,0,0.1417322835,17.7165354375,17.7165354375)" /><rect x="546" y="437" width="2" height="2" style="fill: rgb(0,0,255); fill-opacity: 1.0" transform="matrix(0.1417322835,0,0,0.1417322835,17.7165354375,17.7165354375)" /><rect x="546" y="437" width="2" height="2" style="fill: rgb(0,0,255); fill-opacity: 1.0" transform="matrix(0.1417322835,0,0,0.1417322835,17.7165354375,17.7165354375)" /><rect x="546" y="437" width="2" height="2" style="fill: rgb(0,0,255); fill-opacity: 1.0" transform="matrix(0.1417322835,0,0,0.1417322835,17.7165354375,17.7165354375)" /><rect x="546" y="437" width="2" height="2" style="fill: rgb(0,0,255); fill-opacity: 1.0" transform="matrix(0.1417322835,0,0,0.1417322835,17.7165354375,17.7165354375)" /><rect x="546" y="437" width="2" height="2" style="fill: rgb(0,0,255); fill-opacity: 1.0" transform="matrix(0.1417322835,0,0,0.1417322835,17.7165354375,17.7165354375)" /><rect x="546" y="437" width="2" height="2" style="fill: rgb(0,0,255); fill-opacity: 1.0" transform="matrix(0.1417322835,0,0,0.1417322835,17.7165354375,17.7165354375)" /><rect x="484" y="443" width="2" height="2" style="fill: rgb(0,0,255); fill-opacity: 1.0" transform="matrix(0.1417322835,0,0,0.1417322835,17.7165354375,17.7165354375)" /><rect x="484" y="443" width="2" height="2" style="fill: rgb(0,0,255); fill-opacity: 1.0" transform="matrix(0.1417322835,0,0,0.1417322835,17.7165354375,17.7165354375)" /><rect x="484" y="443" width="2" height="2" style="fill: rgb(0,0,255); fill-opacity: 1.0" transform="matrix(0.1417322835,0,0,0.1417322835,17.7165354375,17.7165354375)" /><rect x="484" y="443" width="2" height="2" style="fill: rgb(0,0,255); fill-opacity: 1.0" transform="matrix(0.1417322835,0,0,0.1417322835,17.7165354375,17.7165354375)" /><rect x="484" y="443" width="2" height="2" style="fill: rgb(0,0,255); fill-opacity: 1.0" transform="matrix(0.1417322835,0,0,0.1417322835,17.7165354375,17.7165354375)" /><rect x="484" y="443" width="2" height="2" style="fill: rgb(0,0,255); fill-opacity: 1.0" transform="matrix(0.1417322835,0,0,0.1417322835,17.7165354375,17.7165354375)" /><rect x="484" y="443" width="64" height="2" style="fill: rgb(0,0,255); fill-opacity: 1.0" transform="matrix(0.1417322835,0,0,0.1417322835,17.7165354375,17.7165354375)" /><rect x="546" y="443" width="2" height="2" style="fill: rgb(0,0,255); fill-opacity: 1.0" transform="matrix(0.1417322835,0,0,0.1417322835,17.7165354375,17.7165354375)" /><rect x="546" y="443" width="2" height="2" style="fill: rgb(0,0,255); fill-opacity: 1.0" transform="matrix(0.1417322835,0,0,0.1417322835,17.7165354375,17.7165354375)" /><rect x="546" y="443" width="2" height="2" style="fill: rgb(0,0,255); fill-opacity: 1.0" transform="matrix(0.1417322835,0,0,0.1417322835,17.7165354375,17.7165354375)" /><rect x="546" y="443" width="2" height="2" style="fill: rgb(0,0,255); fill-opacity: 1.0" transform="matrix(0.1417322835,0,0,0.1417322835,17.7165354375,17.7165354375)" /><rect x="546" y="443" width="2" height="2" style="fill: rgb(0,0,255); fill-opacity: 1.0" transform="matrix(0.1417322835,0,0,0.1417322835,17.7165354375,17.7165354375)" /><rect x="546" y="443" width="2" height="2" style="fill: rgb(0,0,255); fill-opacity: 1.0" transform="matrix(0.1417322835,0,0,0.1417322835,17.7165354375,17.7165354375)" /><rect x="546" y="437" width="2" height="2" style="fill: rgb(0,0,255); fill-opacity: 1.0" transform="matrix(0.1417322835,0,0,0.1417322835,17.7165354375,17.7165354375)" /><rect x="546" y="437" width="2" height="2" style="fill: rgb(0,0,255); fill-opacity: 1.0" transform="matrix(0.1417322835,0,0,0.1417322835,17.7165354375,17.7165354375)" /><rect x="546" y="437" width="2" height="2" style="fill: rgb(0,0,255); fill-opacity: 1.0" transform="matrix(0.1417322835,0,0,0.1417322835,17.7165354375,17.7165354375)" /><rect x="546" y="437" width="2" height="2" style="fill: rgb(0,0,255); fill-opacity: 1.0" transform="matrix(0.1417322835,0,0,0.1417322835,17.7165354375,17.7165354375)" /><rect x="546" y="437" width="2" height="2" style="fill: rgb(0,0,255); fill-opacity: 1.0" transform="matrix(0.1417322835,0,0,0.1417322835,17.7165354375,17.7165354375)" /><rect x="546" y="437" width="2" height="2" style="fill: rgb(0,0,255); fill-opacity: 1.0" transform="matrix(0.1417322835,0,0,0.1417322835,17.7165354375,17.7165354375)" /><rect x="546" y="437" width="2" height="5" style="fill: rgb(0,0,255); fill-opacity: 1.0" transform="matrix(0.1417322835,0,0,0.1417322835,17.7165354375,17.7165354375)" /><rect x="546" y="440" width="2" height="2" style="fill: rgb(0,0,255); fill-opacity: 1.0" transform="matrix(0.1417322835,0,0,0.1417322835,17.7165354375,17.7165354375)" /><rect x="546" y="440" width="2" height="2" style="fill: rgb(0,0,255); fill-opacity: 1.0" transform="matrix(0.1417322835,0,0,0.1417322835,17.7165354375,17.7165354375)" /><rect x="546" y="440" width="2" height="2" style="fill: rgb(0,0,255); fill-opacity: 1.0" transform="matrix(0.1417322835,0,0,0.1417322835,17.7165354375,17.7165354375)" /><rect x="546" y="440" width="2" height="2" style="fill: rgb(0,0,255); fill-opacity: 1.0" transform="matrix(0.1417322835,0,0,0.1417322835,17.7165354375,17.7165354375)" /><rect x="546" y="440" width="2" height="2" style="fill: rgb(0,0,255); fill-opacity: 1.0" transform="matrix(0.1417322835,0,0,0.1417322835,17.7165354375,17.7165354375)" /><rect x="546" y="440" width="2" height="2" style="fill: rgb(0,0,255); fill-opacity: 1.0" transform="matrix(0.1417322835,0,0,0.1417322835,17.7165354375,17.7165354375)" /><rect x="546" y="443" width="2" height="2" style="fill: rgb(0,0,255); fill-opacity: 1.0" transform="matrix(0.1417322835,0,0,0.1417322835,17.7165354375,17.7165354375)" /><rect x="546" y="443" width="2" height="2" style="fill: rgb(0,0,255); fill-opacity: 1.0" transform="matrix(0.1417322835,0,0,0.1417322835,17.7165354375,17.7165354375)" /><rect x="546" y="443" width="2" height="2" style="fill: rgb(0,0,255); fill-opacity: 1.0" transform="matrix(0.1417322835,0,0,0.1417322835,17.7165354375,17.7165354375)" /><rect x="546" y="443" width="2" height="2" style="fill: rgb(0,0,255); fill-opacity: 1.0" transform="matrix(0.1417322835,0,0,0.1417322835,17.7165354375,17.7165354375)" /><rect x="546" y="443" width="2" height="2" style="fill: rgb(0,0,255); fill-opacity: 1.0" transform="matrix(0.1417322835,0,0,0.1417322835,17.7165354375,17.7165354375)" /><rect x="546" y="443" width="2" height="2" style="fill: rgb(0,0,255); fill-opacity: 1.0" transform="matrix(0.1417322835,0,0,0.1417322835,17.7165354375,17.7165354375)" /><rect x="546" y="440" width="2" height="5" style="fill: rgb(0,0,255); fill-opacity: 1.0" transform="matrix(0.1417322835,0,0,0.1417322835,17.7165354375,17.7165354375)" /><rect x="546" y="440" width="2" height="2" style="fill: rgb(0,0,255); fill-opacity: 1.0" transform="matrix(0.1417322835,0,0,0.1417322835,17.7165354375,17.7165354375)" /><rect x="546" y="440" width="2" height="2" style="fill: rgb(0,0,255); fill-opacity: 1.0" transform="matrix(0.1417322835,0,0,0.1417322835,17.7165354375,17.7165354375)" /><rect x="546" y="440" width="2" height="2" style="fill: rgb(0,0,255); fill-opacity: 1.0" transform="matrix(0.1417322835,0,0,0.1417322835,17.7165354375,17.7165354375)" /><rect x="546" y="440" width="2" height="2" style="fill: rgb(0,0,255); fill-opacity: 1.0" transform="matrix(0.1417322835,0,0,0.1417322835,17.7165354375,17.7165354375)" /><rect x="546" y="440" width="2" height="2" style="fill: rgb(0,0,255); fill-opacity: 1.0" transform="matrix(0.1417322835,0,0,0.1417322835,17.7165354375,17.7165354375)" /><rect x="546" y="440" width="2" height="2" style="fill: rgb(0,0,255); fill-opacity: 1.0" transform="matrix(0.1417322835,0,0,0.1417322835,17.7165354375,17.7165354375)" /><rect x="484" y="437" width="2" height="2" style="fill: rgb(0,0,255); fill-opacity: 1.0" transform="matrix(0.1417322835,0,0,0.1417322835,17.7165354375,17.7165354375)" /><rect x="484" y="437" width="2" height="2" style="fill: rgb(0,0,255); fill-opacity: 1.0" transform="matrix(0.1417322835,0,0,0.1417322835,17.7165354375,17.7165354375)" /><rect x="484" y="437" width="2" height="2" style="fill: rgb(0,0,255); fill-opacity: 1.0" transform="matrix(0.1417322835,0,0,0.1417322835,17.7165354375,17.7165354375)" /><rect x="484" y="437" width="2" height="2" style="fill: rgb(0,0,255); fill-opacity: 1.0" transform="matrix(0.1417322835,0,0,0.1417322835,17.7165354375,17.7165354375)" /><rect x="484" y="437" width="2" height="2" style="fill: rgb(0,0,255); fill-opacity: 1.0" transform="matrix(0.1417322835,0,0,0.1417322835,17.7165354375,17.7165354375)" /><rect x="484" y="437" width="2" height="2" style="fill: rgb(0,0,255); fill-opacity: 1.0" transform="matrix(0.1417322835,0,0,0.1417322835,17.7165354375,17.7165354375)" /><rect x="384" y="437" width="102" height="2" style="fill: rgb(0,0,255); fill-opacity: 1.0" transform="matrix(0.1417322835,0,0,0.1417322835,17.7165354375,17.7165354375)" /><rect x="384" y="437" width="2" height="2" style="fill: rgb(0,0,255); fill-opacity: 1.0" transform="matrix(0.1417322835,0,0,0.1417322835,17.7165354375,17.7165354375)" /><rect x="384" y="437" width="2" height="2" style="fill: rgb(0,0,255); fill-opacity: 1.0" transform="matrix(0.1417322835,0,0,0.1417322835,17.7165354375,17.7165354375)" /><rect x="384" y="437" width="2" height="2" style="fill: rgb(0,0,255); fill-opacity: 1.0" transform="matrix(0.1417322835,0,0,0.1417322835,17.7165354375,17.7165354375)" /><rect x="384" y="437" width="2" height="2" style="fill: rgb(0,0,255); fill-opacity: 1.0" transform="matrix(0.1417322835,0,0,0.1417322835,17.7165354375,17.7165354375)" /><rect x="384" y="437" width="2" height="2" style="fill: rgb(0,0,255); fill-opacity: 1.0" transform="matrix(0.1417322835,0,0,0.1417322835,17.7165354375,17.7165354375)" /><rect x="384" y="437" width="2" height="2" style="fill: rgb(0,0,255); fill-opacity: 1.0" transform="matrix(0.1417322835,0,0,0.1417322835,17.7165354375,17.7165354375)" /><rect x="484" y="443" width="2" height="2" style="fill: rgb(0,0,255); fill-opacity: 1.0" transform="matrix(0.1417322835,0,0,0.1417322835,17.7165354375,17.7165354375)" /><rect x="484" y="443" width="2" height="2" style="fill: rgb(0,0,255); fill-opacity: 1.0" transform="matrix(0.1417322835,0,0,0.1417322835,17.7165354375,17.7165354375)" /><rect x="484" y="443" width="2" height="2" style="fill: rgb(0,0,255); fill-opacity: 1.0" transform="matrix(0.1417322835,0,0,0.1417322835,17.7165354375,17.7165354375)" /><rect x="484" y="443" width="2" height="2" style="fill: rgb(0,0,255); fill-opacity: 1.0" transform="matrix(0.1417322835,0,0,0.1417322835,17.7165354375,17.7165354375)" /><rect x="484" y="443" width="2" height="2" style="fill: rgb(0,0,255); fill-opacity: 1.0" transform="matrix(0.1417322835,0,0,0.1417322835,17.7165354375,17.7165354375)" /><rect x="484" y="443" width="2" height="2" style="fill: rgb(0,0,255); fill-opacity: 1.0" transform="matrix(0.1417322835,0,0,0.1417322835,17.7165354375,17.7165354375)" /><rect x="384" y="443" width="102" height="2" style="fill: rgb(0,0,255); fill-opacity: 1.0" transform="matrix(0.1417322835,0,0,0.1417322835,17.7165354375,17.7165354375)" /><rect x="384" y="443" width="2" height="2" style="fill: rgb(0,0,255); fill-opacity: 1.0" transform="matrix(0.1417322835,0,0,0.1417322835,17.7165354375,17.7165354375)" /><rect x="384" y="443" width="2" height="2" style="fill: rgb(0,0,255); fill-opacity: 1.0" transform="matrix(0.1417322835,0,0,0.1417322835,17.7165354375,17.7165354375)" /><rect x="384" y="443" width="2" height="2" style="fill: rgb(0,0,255); fill-opacity: 1.0" transform="matrix(0.1417322835,0,0,0.1417322835,17.7165354375,17.7165354375)" /><rect x="384" y="443" width="2" height="2" style="fill: rgb(0,0,255); fill-opacity: 1.0" transform="matrix(0.1417322835,0,0,0.1417322835,17.7165354375,17.7165354375)" /><rect x="384" y="443" width="2" height="2" style="fill: rgb(0,0,255); fill-opacity: 1.0" transform="matrix(0.1417322835,0,0,0.1417322835,17.7165354375,17.7165354375)" /><rect x="384" y="443" width="2" height="2" style="fill: rgb(0,0,255); fill-opacity: 1.0" transform="matrix(0.1417322835,0,0,0.1417322835,17.7165354375,17.7165354375)" /><rect x="546" y="440" width="2" height="2" style="fill: rgb(0,0,255); fill-opacity: 1.0" transform="matrix(0.1417322835,0,0,0.1417322835,17.7165354375,17.7165354375)" /><rect x="546" y="440" width="2" height="2" style="fill: rgb(0,0,255); fill-opacity: 1.0" transform="matrix(0.1417322835,0,0,0.1417322835,17.7165354375,17.7165354375)" /><rect x="546" y="440" width="2" height="2" style="fill: rgb(0,0,255); fill-opacity: 1.0" transform="matrix(0.1417322835,0,0,0.1417322835,17.7165354375,17.7165354375)" /><rect x="546" y="440" width="2" height="2" style="fill: rgb(0,0,255); fill-opacity: 1.0" transform="matrix(0.1417322835,0,0,0.1417322835,17.7165354375,17.7165354375)" /><rect x="546" y="440" width="2" height="2" style="fill: rgb(0,0,255); fill-opacity: 1.0" transform="matrix(0.1417322835,0,0,0.1417322835,17.7165354375,17.7165354375)" /><rect x="546" y="440" width="2" height="2" style="fill: rgb(0,0,255); fill-opacity: 1.0" transform="matrix(0.1417322835,0,0,0.1417322835,17.7165354375,17.7165354375)" /><rect x="546" y="440" width="102" height="2" style="fill: rgb(0,0,255); fill-opacity: 1.0" transform="matrix(0.1417322835,0,0,0.1417322835,17.7165354375,17.7165354375)" /><rect x="646" y="440" width="2" height="2" style="fill: rgb(0,0,255); fill-opacity: 1.0" transform="matrix(0.1417322835,0,0,0.1417322835,17.7165354375,17.7165354375)" /><rect x="646" y="440" width="2" height="2" style="fill: rgb(0,0,255); fill-opacity: 1.0" transform="matrix(0.1417322835,0,0,0.1417322835,17.7165354375,17.7165354375)" /><rect x="646" y="440" width="2" height="2" style="fill: rgb(0,0,255); fill-opacity: 1.0" transform="matrix(0.1417322835,0,0,0.1417322835,17.7165354375,17.7165354375)" /><rect x="646" y="440" width="2" height="2" style="fill: rgb(0,0,255); fill-opacity: 1.0" transform="matrix(0.1417322835,0,0,0.1417322835,17.7165354375,17.7165354375)" /><rect x="646" y="440" width="2" height="2" style="fill: rgb(0,0,255); fill-opacity: 1.0" transform="matrix(0.1417322835,0,0,0.1417322835,17.7165354375,17.7165354375)" /><rect x="646" y="440" width="2" height="2" style="fill: rgb(0,0,255); fill-opacity: 1.0" transform="matrix(0.1417322835,0,0,0.1417322835,17.7165354375,17.7165354375)" /><rect x="946" y="440" width="2" height="2" style="fill: rgb(0,0,255); fill-opacity: 1.0" transform="matrix(0.1417322835,0,0,0.1417322835,17.7165354375,17.7165354375)" /><rect x="946" y="440" width="2" height="2" style="fill: rgb(0,0,255); fill-opacity: 1.0" transform="matrix(0.1417322835,0,0,0.1417322835,17.7165354375,17.7165354375)" /><rect x="946" y="440" width="2" height="2" style="fill: rgb(0,0,255); fill-opacity: 1.0" transform="matrix(0.1417322835,0,0,0.1417322835,17.7165354375,17.7165354375)" /><rect x="946" y="440" width="2" height="2" style="fill: rgb(0,0,255); fill-opacity: 1.0" transform="matrix(0.1417322835,0,0,0.1417322835,17.7165354375,17.7165354375)" /><rect x="946" y="440" width="2" height="2" style="fill: rgb(0,0,255); fill-opacity: 1.0" transform="matrix(0.1417322835,0,0,0.1417322835,17.7165354375,17.7165354375)" /><rect x="946" y="440" width="2" height="2" style="fill: rgb(0,0,255); fill-opacity: 1.0" transform="matrix(0.1417322835,0,0,0.1417322835,17.7165354375,17.7165354375)" /><rect x="946" y="440" width="64" height="2" style="fill: rgb(0,0,255); fill-opacity: 1.0" transform="matrix(0.1417322835,0,0,0.1417322835,17.7165354375,17.7165354375)" /><rect x="1008" y="440" width="2" height="2" style="fill: rgb(0,0,255); fill-opacity: 1.0" transform="matrix(0.1417322835,0,0,0.1417322835,17.7165354375,17.7165354375)" /><rect x="1008" y="440" width="2" height="2" style="fill: rgb(0,0,255); fill-opacity: 1.0" transform="matrix(0.1417322835,0,0,0.1417322835,17.7165354375,17.7165354375)" /><rect x="1008" y="440" width="2" height="2" style="fill: rgb(0,0,255); fill-opacity: 1.0" transform="matrix(0.1417322835,0,0,0.1417322835,17.7165354375,17.7165354375)" /><rect x="1008" y="440" width="2" height="2" style="fill: rgb(0,0,255); fill-opacity: 1.0" transform="matrix(0.1417322835,0,0,0.1417322835,17.7165354375,17.7165354375)" /><rect x="1008" y="440" width="2" height="2" style="fill: rgb(0,0,255); fill-opacity: 1.0" transform="matrix(0.1417322835,0,0,0.1417322835,17.7165354375,17.7165354375)" /><rect x="1008" y="440" width="2" height="2" style="fill: rgb(0,0,255); fill-opacity: 1.0" transform="matrix(0.1417322835,0,0,0.1417322835,17.7165354375,17.7165354375)" /><rect x="946" y="446" width="2" height="2" style="fill: rgb(0,0,255); fill-opacity: 1.0" transform="matrix(0.1417322835,0,0,0.1417322835,17.7165354375,17.7165354375)" /><rect x="946" y="446" width="2" height="2" style="fill: rgb(0,0,255); fill-opacity: 1.0" transform="matrix(0.1417322835,0,0,0.1417322835,17.7165354375,17.7165354375)" /><rect x="946" y="446" width="2" height="2" style="fill: rgb(0,0,255); fill-opacity: 1.0" transform="matrix(0.1417322835,0,0,0.1417322835,17.7165354375,17.7165354375)" /><rect x="946" y="446" width="2" height="2" style="fill: rgb(0,0,255); fill-opacity: 1.0" transform="matrix(0.1417322835,0,0,0.1417322835,17.7165354375,17.7165354375)" /><rect x="946" y="446" width="2" height="2" style="fill: rgb(0,0,255); fill-opacity: 1.0" transform="matrix(0.1417322835,0,0,0.1417322835,17.7165354375,17.7165354375)" /><rect x="946" y="446" width="2" height="2" style="fill: rgb(0,0,255); fill-opacity: 1.0" transform="matrix(0.1417322835,0,0,0.1417322835,17.7165354375,17.7165354375)" /><rect x="946" y="446" width="64" height="2" style="fill: rgb(0,0,255); fill-opacity: 1.0" transform="matrix(0.1417322835,0,0,0.1417322835,17.7165354375,17.7165354375)" /><rect x="1008" y="446" width="2" height="2" style="fill: rgb(0,0,255); fill-opacity: 1.0" transform="matrix(0.1417322835,0,0,0.1417322835,17.7165354375,17.7165354375)" /><rect x="1008" y="446" width="2" height="2" style="fill: rgb(0,0,255); fill-opacity: 1.0" transform="matrix(0.1417322835,0,0,0.1417322835,17.7165354375,17.7165354375)" /><rect x="1008" y="446" width="2" height="2" style="fill: rgb(0,0,255); fill-opacity: 1.0" transform="matrix(0.1417322835,0,0,0.1417322835,17.7165354375,17.7165354375)" /><rect x="1008" y="446" width="2" height="2" style="fill: rgb(0,0,255); fill-opacity: 1.0" transform="matrix(0.1417322835,0,0,0.1417322835,17.7165354375,17.7165354375)" /><rect x="1008" y="446" width="2" height="2" style="fill: rgb(0,0,255); fill-opacity: 1.0" transform="matrix(0.1417322835,0,0,0.1417322835,17.7165354375,17.7165354375)" /><rect x="1008" y="446" width="2" height="2" style="fill: rgb(0,0,255); fill-opacity: 1.0" transform="matrix(0.1417322835,0,0,0.1417322835,17.7165354375,17.7165354375)" /><rect x="1008" y="440" width="2" height="2" style="fill: rgb(0,0,255); fill-opacity: 1.0" transform="matrix(0.1417322835,0,0,0.1417322835,17.7165354375,17.7165354375)" /><rect x="1008" y="440" width="2" height="2" style="fill: rgb(0,0,255); fill-opacity: 1.0" transform="matrix(0.1417322835,0,0,0.1417322835,17.7165354375,17.7165354375)" /><rect x="1008" y="440" width="2" height="2" style="fill: rgb(0,0,255); fill-opacity: 1.0" transform="matrix(0.1417322835,0,0,0.1417322835,17.7165354375,17.7165354375)" /><rect x="1008" y="440" width="2" height="2" style="fill: rgb(0,0,255); fill-opacity: 1.0" transform="matrix(0.1417322835,0,0,0.1417322835,17.7165354375,17.7165354375)" /><rect x="1008" y="440" width="2" height="2" style="fill: rgb(0,0,255); fill-opacity: 1.0" transform="matrix(0.1417322835,0,0,0.1417322835,17.7165354375,17.7165354375)" /><rect x="1008" y="440" width="2" height="2" style="fill: rgb(0,0,255); fill-opacity: 1.0" transform="matrix(0.1417322835,0,0,0.1417322835,17.7165354375,17.7165354375)" /><rect x="1008" y="440" width="2" height="5" style="fill: rgb(0,0,255); fill-opacity: 1.0" transform="matrix(0.1417322835,0,0,0.1417322835,17.7165354375,17.7165354375)" /><rect x="1008" y="443" width="2" height="2" style="fill: rgb(0,0,255); fill-opacity: 1.0" transform="matrix(0.1417322835,0,0,0.1417322835,17.7165354375,17.7165354375)" /><rect x="1008" y="443" width="2" height="2" style="fill: rgb(0,0,255); fill-opacity: 1.0" transform="matrix(0.1417322835,0,0,0.1417322835,17.7165354375,17.7165354375)" /><rect x="1008" y="443" width="2" height="2" style="fill: rgb(0,0,255); fill-opacity: 1.0" transform="matrix(0.1417322835,0,0,0.1417322835,17.7165354375,17.7165354375)" /><rect x="1008" y="443" width="2" height="2" style="fill: rgb(0,0,255); fill-opacity: 1.0" transform="matrix(0.1417322835,0,0,0.1417322835,17.7165354375,17.7165354375)" /><rect x="1008" y="443" width="2" height="2" style="fill: rgb(0,0,255); fill-opacity: 1.0" transform="matrix(0.1417322835,0,0,0.1417322835,17.7165354375,17.7165354375)" /><rect x="1008" y="443" width="2" height="2" style="fill: rgb(0,0,255); fill-opacity: 1.0" transform="matrix(0.1417322835,0,0,0.1417322835,17.7165354375,17.7165354375)" /><rect x="1008" y="446" width="2" height="2" style="fill: rgb(0,0,255); fill-opacity: 1.0" transform="matrix(0.1417322835,0,0,0.1417322835,17.7165354375,17.7165354375)" /><rect x="1008" y="446" width="2" height="2" style="fill: rgb(0,0,255); fill-opacity: 1.0" transform="matrix(0.1417322835,0,0,0.1417322835,17.7165354375,17.7165354375)" /><rect x="1008" y="446" width="2" height="2" style="fill: rgb(0,0,255); fill-opacity: 1.0" transform="matrix(0.1417322835,0,0,0.1417322835,17.7165354375,17.7165354375)" /><rect x="1008" y="446" width="2" height="2" style="fill: rgb(0,0,255); fill-opacity: 1.0" transform="matrix(0.1417322835,0,0,0.1417322835,17.7165354375,17.7165354375)" /><rect x="1008" y="446" width="2" height="2" style="fill: rgb(0,0,255); fill-opacity: 1.0" transform="matrix(0.1417322835,0,0,0.1417322835,17.7165354375,17.7165354375)" /><rect x="1008" y="446" width="2" height="2" style="fill: rgb(0,0,255); fill-opacity: 1.0" transform="matrix(0.1417322835,0,0,0.1417322835,17.7165354375,17.7165354375)" /><rect x="1008" y="443" width="2" height="5" style="fill: rgb(0,0,255); fill-opacity: 1.0" transform="matrix(0.1417322835,0,0,0.1417322835,17.7165354375,17.7165354375)" /><rect x="1008" y="443" width="2" height="2" style="fill: rgb(0,0,255); fill-opacity: 1.0" transform="matrix(0.1417322835,0,0,0.1417322835,17.7165354375,17.7165354375)" /><rect x="1008" y="443" width="2" height="2" style="fill: rgb(0,0,255); fill-opacity: 1.0" transform="matrix(0.1417322835,0,0,0.1417322835,17.7165354375,17.7165354375)" /><rect x="1008" y="443" width="2" height="2" style="fill: rgb(0,0,255); fill-opacity: 1.0" transform="matrix(0.1417322835,0,0,0.1417322835,17.7165354375,17.7165354375)" /><rect x="1008" y="443" width="2" height="2" style="fill: rgb(0,0,255); fill-opacity: 1.0" transform="matrix(0.1417322835,0,0,0.1417322835,17.7165354375,17.7165354375)" /><rect x="1008" y="443" width="2" height="2" style="fill: rgb(0,0,255); fill-opacity: 1.0" transform="matrix(0.1417322835,0,0,0.1417322835,17.7165354375,17.7165354375)" /><rect x="1008" y="443" width="2" height="2" style="fill: rgb(0,0,255); fill-opacity: 1.0" transform="matrix(0.1417322835,0,0,0.1417322835,17.7165354375,17.7165354375)" /><rect x="946" y="440" width="2" height="2" style="fill: rgb(0,0,255); fill-opacity: 1.0" transform="matrix(0.1417322835,0,0,0.1417322835,17.7165354375,17.7165354375)" /><rect x="946" y="440" width="2" height="2" style="fill: rgb(0,0,255); fill-opacity: 1.0" transform="matrix(0.1417322835,0,0,0.1417322835,17.7165354375,17.7165354375)" /><rect x="946" y="440" width="2" height="2" style="fill: rgb(0,0,255); fill-opacity: 1.0" transform="matrix(0.1417322835,0,0,0.1417322835,17.7165354375,17.7165354375)" /><rect x="946" y="440" width="2" height="2" style="fill: rgb(0,0,255); fill-opacity: 1.0" transform="matrix(0.1417322835,0,0,0.1417322835,17.7165354375,17.7165354375)" /><rect x="946" y="440" width="2" height="2" style="fill: rgb(0,0,255); fill-opacity: 1.0" transform="matrix(0.1417322835,0,0,0.1417322835,17.7165354375,17.7165354375)" /><rect x="946" y="440" width="2" height="2" style="fill: rgb(0,0,255); fill-opacity: 1.0" transform="matrix(0.1417322835,0,0,0.1417322835,17.7165354375,17.7165354375)" /><rect x="846" y="440" width="102" height="2" style="fill: rgb(0,0,255); fill-opacity: 1.0" transform="matrix(0.1417322835,0,0,0.1417322835,17.7165354375,17.7165354375)" /><rect x="846" y="440" width="2" height="2" style="fill: rgb(0,0,255); fill-opacity: 1.0" transform="matrix(0.1417322835,0,0,0.1417322835,17.7165354375,17.7165354375)" /><rect x="846" y="440" width="2" height="2" style="fill: rgb(0,0,255); fill-opacity: 1.0" transform="matrix(0.1417322835,0,0,0.1417322835,17.7165354375,17.7165354375)" /><rect x="846" y="440" width="2" height="2" style="fill: rgb(0,0,255); fill-opacity: 1.0" transform="matrix(0.1417322835,0,0,0.1417322835,17.7165354375,17.7165354375)" /><rect x="846" y="440" width="2" height="2" style="fill: rgb(0,0,255); fill-opacity: 1.0" transform="matrix(0.1417322835,0,0,0.1417322835,17.7165354375,17.7165354375)" /><rect x="846" y="440" width="2" height="2" style="fill: rgb(0,0,255); fill-opacity: 1.0" transform="matrix(0.1417322835,0,0,0.1417322835,17.7165354375,17.7165354375)" /><rect x="846" y="440" width="2" height="2" style="fill: rgb(0,0,255); fill-opacity: 1.0" transform="matrix(0.1417322835,0,0,0.1417322835,17.7165354375,17.7165354375)" /><rect x="946" y="446" width="2" height="2" style="fill: rgb(0,0,255); fill-opacity: 1.0" transform="matrix(0.1417322835,0,0,0.1417322835,17.7165354375,17.7165354375)" /><rect x="946" y="446" width="2" height="2" style="fill: rgb(0,0,255); fill-opacity: 1.0" transform="matrix(0.1417322835,0,0,0.1417322835,17.7165354375,17.7165354375)" /><rect x="946" y="446" width="2" height="2" style="fill: rgb(0,0,255); fill-opacity: 1.0" transform="matrix(0.1417322835,0,0,0.1417322835,17.7165354375,17.7165354375)" /><rect x="946" y="446" width="2" height="2" style="fill: rgb(0,0,255); fill-opacity: 1.0" transform="matrix(0.1417322835,0,0,0.1417322835,17.7165354375,17.7165354375)" /><rect x="946" y="446" width="2" height="2" style="fill: rgb(0,0,255); fill-opacity: 1.0" transform="matrix(0.1417322835,0,0,0.1417322835,17.7165354375,17.7165354375)" /><rect x="946" y="446" width="2" height="2" style="fill: rgb(0,0,255); fill-opacity: 1.0" transform="matrix(0.1417322835,0,0,0.1417322835,17.7165354375,17.7165354375)" /><rect x="846" y="446" width="102" height="2" style="fill: rgb(0,0,255); fill-opacity: 1.0" transform="matrix(0.1417322835,0,0,0.1417322835,17.7165354375,17.7165354375)" /><rect x="846" y="446" width="2" height="2" style="fill: rgb(0,0,255); fill-opacity: 1.0" transform="matrix(0.1417322835,0,0,0.1417322835,17.7165354375,17.7165354375)" /><rect x="846" y="446" width="2" height="2" style="fill: rgb(0,0,255); fill-opacity: 1.0" transform="matrix(0.1417322835,0,0,0.1417322835,17.7165354375,17.7165354375)" /><rect x="846" y="446" width="2" height="2" style="fill: rgb(0,0,255); fill-opacity: 1.0" transform="matrix(0.1417322835,0,0,0.1417322835,17.7165354375,17.7165354375)" /><rect x="846" y="446" width="2" height="2" style="fill: rgb(0,0,255); fill-opacity: 1.0" transform="matrix(0.1417322835,0,0,0.1417322835,17.7165354375,17.7165354375)" /><rect x="846" y="446" width="2" height="2" style="fill: rgb(0,0,255); fill-opacity: 1.0" transform="matrix(0.1417322835,0,0,0.1417322835,17.7165354375,17.7165354375)" /><rect x="846" y="446" width="2" height="2" style="fill: rgb(0,0,255); fill-opacity: 1.0" transform="matrix(0.1417322835,0,0,0.1417322835,17.7165354375,17.7165354375)" /><rect x="1008" y="443" width="2" height="2" style="fill: rgb(0,0,255); fill-opacity: 1.0" transform="matrix(0.1417322835,0,0,0.1417322835,17.7165354375,17.7165354375)" /><rect x="1008" y="443" width="2" height="2" style="fill: rgb(0,0,255); fill-opacity: 1.0" transform="matrix(0.1417322835,0,0,0.1417322835,17.7165354375,17.7165354375)" /><rect x="1008" y="443" width="2" height="2" style="fill: rgb(0,0,255); fill-opacity: 1.0" transform="matrix(0.1417322835,0,0,0.1417322835,17.7165354375,17.7165354375)" /><rect x="1008" y="443" width="2" height="2" style="fill: rgb(0,0,255); fill-opacity: 1.0" transform="matrix(0.1417322835,0,0,0.1417322835,17.7165354375,17.7165354375)" /><rect x="1008" y="443" width="2" height="2" style="fill: rgb(0,0,255); fill-opacity: 1.0" transform="matrix(0.1417322835,0,0,0.1417322835,17.7165354375,17.7165354375)" /><rect x="1008" y="443" width="2" height="2" style="fill: rgb(0,0,255); fill-opacity: 1.0" transform="matrix(0.1417322835,0,0,0.1417322835,17.7165354375,17.7165354375)" /><rect x="1008" y="443" width="102" height="2" style="fill: rgb(0,0,255); fill-opacity: 1.0" transform="matrix(0.1417322835,0,0,0.1417322835,17.7165354375,17.7165354375)" /><rect x="1108" y="443" width="2" height="2" style="fill: rgb(0,0,255); fill-opacity: 1.0" transform="matrix(0.1417322835,0,0,0.1417322835,17.7165354375,17.7165354375)" /><rect x="1108" y="443" width="2" height="2" style="fill: rgb(0,0,255); fill-opacity: 1.0" transform="matrix(0.1417322835,0,0,0.1417322835,17.7165354375,17.7165354375)" /><rect x="1108" y="443" width="2" height="2" style="fill: rgb(0,0,255); fill-opacity: 1.0" transform="matrix(0.1417322835,0,0,0.1417322835,17.7165354375,17.7165354375)" /><rect x="1108" y="443" width="2" height="2" style="fill: rgb(0,0,255); fill-opacity: 1.0" transform="matrix(0.1417322835,0,0,0.1417322835,17.7165354375,17.7165354375)" /><rect x="1108" y="443" width="2" height="2" style="fill: rgb(0,0,255); fill-opacity: 1.0" transform="matrix(0.1417322835,0,0,0.1417322835,17.7165354375,17.7165354375)" /><rect x="1108" y="443" width="2" height="2" style="fill: rgb(0,0,255); fill-opacity: 1.0" transform="matrix(0.1417322835,0,0,0.1417322835,17.7165354375,17.7165354375)" /><g style="fill: rgb(0,0,255); fill-opacity: 1.0; stroke: none" transform="matrix(0.1417322835,0,0,0.1417322835,17.7165354375,17.7165354375)" ><path d="M 840.5814819336 125.0146179199 C 837.4378662109 125.2344360352 835 127.8487167358 835 131 C 835 134.1512908936 837.4378662109 136.7655639648 840.5814819336 136.9853820801"/></g><g style="fill: rgb(0,0,255); fill-opacity: 1.0; stroke: none" transform="matrix(0.1417322835,0,0,0.1417322835,17.7165354375,17.7165354375)" ><path d="M 841.4185180664 136.9853820801 C 844.5621337891 136.7655639648 847 134.1512908936 847 131 C 847 127.8487167358 844.5621337891 125.2344360352 841.4185180664 125.0146179199"/></g><rect x="128" y="437" width="2" height="2" style="fill: rgb(0,0,255); fill-opacity: 1.0" transform="matrix(0.1417322835,0,0,0.1417322835,17.7165354375,17.7165354375)" /><rect x="128" y="437" width="2" height="2" style="fill: rgb(0,0,255); fill-opacity: 1.0" transform="matrix(0.1417322835,0,0,0.1417322835,17.7165354375,17.7165354375)" /><rect x="128" y="437" width="2" height="2" style="fill: rgb(0,0,255); fill-opacity: 1.0" transform="matrix(0.1417322835,0,0,0.1417322835,17.7165354375,17.7165354375)" /><rect x="128" y="437" width="2" height="2" style="fill: rgb(0,0,255); fill-opacity: 1.0" transform="matrix(0.1417322835,0,0,0.1417322835,17.7165354375,17.7165354375)" /><rect x="128" y="437" width="2" height="2" style="fill: rgb(0,0,255); fill-opacity: 1.0" transform="matrix(0.1417322835,0,0,0.1417322835,17.7165354375,17.7165354375)" /><rect x="128" y="437" width="2" height="2" style="fill: rgb(0,0,255); fill-opacity: 1.0" transform="matrix(0.1417322835,0,0,0.1417322835,17.7165354375,17.7165354375)" /><rect x="128" y="437" width="2" height="2" style="fill: rgb(0,0,255); fill-opacity: 1.0" transform="matrix(0.1417322835,0,0,0.1417322835,17.7165354375,17.7165354375)" /><rect x="128" y="437" width="2" height="2" style="fill: rgb(0,0,255); fill-opacity: 1.0" transform="matrix(0.1417322835,0,0,0.1417322835,17.7165354375,17.7165354375)" /><rect x="128" y="437" width="258" height="2" style="fill: rgb(0,0,255); fill-opacity: 1.0" transform="matrix(0.1417322835,0,0,0.1417322835,17.7165354375,17.7165354375)" /><rect x="384" y="437" width="2" height="2" style="fill: rgb(0,0,255); fill-opacity: 1.0" transform="matrix(0.1417322835,0,0,0.1417322835,17.7165354375,17.7165354375)" /><rect x="384" y="437" width="2" height="2" style="fill: rgb(0,0,255); fill-opacity: 1.0" transform="matrix(0.1417322835,0,0,0.1417322835,17.7165354375,17.7165354375)" /><rect x="384" y="437" width="2" height="2" style="fill: rgb(0,0,255); fill-opacity: 1.0" transform="matrix(0.1417322835,0,0,0.1417322835,17.7165354375,17.7165354375)" /><rect x="384" y="437" width="2" height="2" style="fill: rgb(0,0,255); fill-opacity: 1.0" transform="matrix(0.1417322835,0,0,0.1417322835,17.7165354375,17.7165354375)" /><rect x="384" y="437" width="2" height="2" style="fill: rgb(0,0,255); fill-opacity: 1.0" transform="matrix(0.1417322835,0,0,0.1417322835,17.7165354375,17.7165354375)" /><rect x="384" y="437" width="2" height="2" style="fill: rgb(0,0,255); fill-opacity: 1.0" transform="matrix(0.1417322835,0,0,0.1417322835,17.7165354375,17.7165354375)" /><rect x="384" y="437" width="2" height="2" style="fill: rgb(0,0,255); fill-opacity: 1.0" transform="matrix(0.1417322835,0,0,0.1417322835,17.7165354375,17.7165354375)" /><rect x="384" y="437" width="2" height="2" style="fill: rgb(0,0,255); fill-opacity: 1.0" transform="matrix(0.1417322835,0,0,0.1417322835,17.7165354375,17.7165354375)" /><rect x="128" y="130" width="2" height="2" style="fill: rgb(0,0,255); fill-opacity: 1.0" transform="matrix(0.1417322835,0,0,0.1417322835,17.7165354375,17.7165354375)" /><rect x="128" y="130" width="2" height="2" style="fill: rgb(0,0,255); fill-opacity: 1.0" transform="matrix(0.1417322835,0,0,0.1417322835,17.7165354375,17.7165354375)" /><rect x="128" y="130" width="2" height="2" style="fill: rgb(0,0,255); fill-opacity: 1.0" transform="matrix(0.1417322835,0,0,0.1417322835,17.7165354375,17.7165354375)" /><rect x="128" y="130" width="2" height="2" style="fill: rgb(0,0,255); fill-opacity: 1.0" transform="matrix(0.1417322835,0,0,0.1417322835,17.7165354375,17.7165354375)" /><rect x="128" y="130" width="2" height="2" style="fill: rgb(0,0,255); fill-opacity: 1.0" transform="matrix(0.1417322835,0,0,0.1417322835,17.7165354375,17.7165354375)" /><rect x="128" y="130" width="2" height="2" style="fill: rgb(0,0,255); fill-opacity: 1.0" transform="matrix(0.1417322835,0,0,0.1417322835,17.7165354375,17.7165354375)" /><rect x="128" y="130" width="2" height="2" style="fill: rgb(0,0,255); fill-opacity: 1.0" transform="matrix(0.1417322835,0,0,0.1417322835,17.7165354375,17.7165354375)" /><rect x="128" y="130" width="2" height="2" style="fill: rgb(0,0,255); fill-opacity: 1.0" transform="matrix(0.1417322835,0,0,0.1417322835,17.7165354375,17.7165354375)" /><rect x="128" y="130" width="708" height="2" style="fill: rgb(0,0,255); fill-opacity: 1.0" transform="matrix(0.1417322835,0,0,0.1417322835,17.7165354375,17.7165354375)" /><rect x="834" y="130" width="2" height="2" style="fill: rgb(0,0,255); fill-opacity: 1.0" transform="matrix(0.1417322835,0,0,0.1417322835,17.7165354375,17.7165354375)" /><rect x="834" y="130" width="2" height="2" style="fill: rgb(0,0,255); fill-opacity: 1.0" transform="matrix(0.1417322835,0,0,0.1417322835,17.7165354375,17.7165354375)" /><rect x="834" y="130" width="2" height="2" style="fill: rgb(0,0,255); fill-opacity: 1.0" transform="matrix(0.1417322835,0,0,0.1417322835,17.7165354375,17.7165354375)" /><rect x="834" y="130" width="2" height="2" style="fill: rgb(0,0,255); fill-opacity: 1.0" transform="matrix(0.1417322835,0,0,0.1417322835,17.7165354375,17.7165354375)" /><rect x="834" y="130" width="2" height="2" style="fill: rgb(0,0,255); fill-opacity: 1.0" transform="matrix(0.1417322835,0,0,0.1417322835,17.7165354375,17.7165354375)" /><rect x="834" y="130" width="2" height="2" style="fill: rgb(0,0,255); fill-opacity: 1.0" transform="matrix(0.1417322835,0,0,0.1417322835,17.7165354375,17.7165354375)" /><rect x="834" y="130" width="2" height="2" style="fill: rgb(0,0,255); fill-opacity: 1.0" transform="matrix(0.1417322835,0,0,0.1417322835,17.7165354375,17.7165354375)" /><rect x="834" y="130" width="2" height="2" style="fill: rgb(0,0,255); fill-opacity: 1.0" transform="matrix(0.1417322835,0,0,0.1417322835,17.7165354375,17.7165354375)" /><rect x="1108" y="443" width="2" height="2" style="fill: rgb(0,0,255); fill-opacity: 1.0" transform="matrix(0.1417322835,0,0,0.1417322835,17.7165354375,17.7165354375)" /><rect x="1108" y="443" width="2" height="2" style="fill: rgb(0,0,255); fill-opacity: 1.0" transform="matrix(0.1417322835,0,0,0.1417322835,17.7165354375,17.7165354375)" /><rect x="1108" y="443" width="2" height="2" style="fill: rgb(0,0,255); fill-opacity: 1.0" transform="matrix(0.1417322835,0,0,0.1417322835,17.7165354375,17.7165354375)" /><rect x="1108" y="443" width="2" height="2" style="fill: rgb(0,0,255); fill-opacity: 1.0" transform="matrix(0.1417322835,0,0,0.1417322835,17.7165354375,17.7165354375)" /><rect x="1108" y="443" width="2" height="2" style="fill: rgb(0,0,255); fill-opacity: 1.0" transform="matrix(0.1417322835,0,0,0.1417322835,17.7165354375,17.7165354375)" /><rect x="1108" y="443" width="2" height="2" style="fill: rgb(0,0,255); fill-opacity: 1.0" transform="matrix(0.1417322835,0,0,0.1417322835,17.7165354375,17.7165354375)" /><rect x="1108" y="443" width="2" height="2" style="fill: rgb(0,0,255); fill-opacity: 1.0" transform="matrix(0.1417322835,0,0,0.1417322835,17.7165354375,17.7165354375)" /><rect x="1108" y="443" width="2" height="2" style="fill: rgb(0,0,255); fill-opacity: 1.0" transform="matrix(0.1417322835,0,0,0.1417322835,17.7165354375,17.7165354375)" /><rect x="1108" y="443" width="204" height="2" style="fill: rgb(0,0,255); fill-opacity: 1.0" transform="matrix(0.1417322835,0,0,0.1417322835,17.7165354375,17.7165354375)" /><rect x="1310" y="443" width="2" height="2" style="fill: rgb(0,0,255); fill-opacity: 1.0" transform="matrix(0.1417322835,0,0,0.1417322835,17.7165354375,17.7165354375)" /><rect x="1310" y="443" width="2" height="2" style="fill: rgb(0,0,255); fill-opacity: 1.0" transform="matrix(0.1417322835,0,0,0.1417322835,17.7165354375,17.7165354375)" /><rect x="1310" y="443" width="2" height="2" style="fill: rgb(0,0,255); fill-opacity: 1.0" transform="matrix(0.1417322835,0,0,0.1417322835,17.7165354375,17.7165354375)" /><rect x="1310" y="443" width="2" height="2" style="fill: rgb(0,0,255); fill-opacity: 1.0" transform="matrix(0.1417322835,0,0,0.1417322835,17.7165354375,17.7165354375)" /><rect x="1310" y="443" width="2" height="2" style="fill: rgb(0,0,255); fill-opacity: 1.0" transform="matrix(0.1417322835,0,0,0.1417322835,17.7165354375,17.7165354375)" /><rect x="1310" y="443" width="2" height="2" style="fill: rgb(0,0,255); fill-opacity: 1.0" transform="matrix(0.1417322835,0,0,0.1417322835,17.7165354375,17.7165354375)" /><rect x="1310" y="443" width="2" height="2" style="fill: rgb(0,0,255); fill-opacity: 1.0" transform="matrix(0.1417322835,0,0,0.1417322835,17.7165354375,17.7165354375)" /><rect x="1310" y="443" width="2" height="2" style="fill: rgb(0,0,255); fill-opacity: 1.0" transform="matrix(0.1417322835,0,0,0.1417322835,17.7165354375,17.7165354375)" /><rect x="646" y="440" width="2" height="2" style="fill: rgb(0,0,255); fill-opacity: 1.0" transform="matrix(0.1417322835,0,0,0.1417322835,17.7165354375,17.7165354375)" /><rect x="646" y="440" width="2" height="2" style="fill: rgb(0,0,255); fill-opacity: 1.0" transform="matrix(0.1417322835,0,0,0.1417322835,17.7165354375,17.7165354375)" /><rect x="646" y="440" width="2" height="2" style="fill: rgb(0,0,255); fill-opacity: 1.0" transform="matrix(0.1417322835,0,0,0.1417322835,17.7165354375,17.7165354375)" /><rect x="646" y="440" width="2" height="2" style="fill: rgb(0,0,255); fill-opacity: 1.0" transform="matrix(0.1417322835,0,0,0.1417322835,17.7165354375,17.7165354375)" /><rect x="646" y="440" width="2" height="2" style="fill: rgb(0,0,255); fill-opacity: 1.0" transform="matrix(0.1417322835,0,0,0.1417322835,17.7165354375,17.7165354375)" /><rect x="646" y="440" width="2" height="2" style="fill: rgb(0,0,255); fill-opacity: 1.0" transform="matrix(0.1417322835,0,0,0.1417322835,17.7165354375,17.7165354375)" /><rect x="646" y="440" width="2" height="2" style="fill: rgb(0,0,255); fill-opacity: 1.0" transform="matrix(0.1417322835,0,0,0.1417322835,17.7165354375,17.7165354375)" /><rect x="646" y="440" width="2" height="2" style="fill: rgb(0,0,255); fill-opacity: 1.0" transform="matrix(0.1417322835,0,0,0.1417322835,17.7165354375,17.7165354375)" /><rect x="646" y="440" width="202" height="2" style="fill: rgb(0,0,255); fill-opacity: 1.0" transform="matrix(0.1417322835,0,0,0.1417322835,17.7165354375,17.7165354375)" /><rect x="846" y="440" width="2" height="2" style="fill: rgb(0,0,255); fill-opacity: 1.0" transform="matrix(0.1417322835,0,0,0.1417322835,17.7165354375,17.7165354375)" /><rect x="846" y="440" width="2" height="2" style="fill: rgb(0,0,255); fill-opacity: 1.0" transform="matrix(0.1417322835,0,0,0.1417322835,17.7165354375,17.7165354375)" /><rect x="846" y="440" width="2" height="2" style="fill: rgb(0,0,255); fill-opacity: 1.0" transform="matrix(0.1417322835,0,0,0.1417322835,17.7165354375,17.7165354375)" /><rect x="846" y="440" width="2" height="2" style="fill: rgb(0,0,255); fill-opacity: 1.0" transform="matrix(0.1417322835,0,0,0.1417322835,17.7165354375,17.7165354375)" /><rect x="846" y="440" width="2" height="2" style="fill: rgb(0,0,255); fill-opacity: 1.0" transform="matrix(0.1417322835,0,0,0.1417322835,17.7165354375,17.7165354375)" /><rect x="846" y="440" width="2" height="2" style="fill: rgb(0,0,255); fill-opacity: 1.0" transform="matrix(0.1417322835,0,0,0.1417322835,17.7165354375,17.7165354375)" /><rect x="846" y="440" width="2" height="2" style="fill: rgb(0,0,255); fill-opacity: 1.0" transform="matrix(0.1417322835,0,0,0.1417322835,17.7165354375,17.7165354375)" /><rect x="846" y="440" width="2" height="2" style="fill: rgb(0,0,255); fill-opacity: 1.0" transform="matrix(0.1417322835,0,0,0.1417322835,17.7165354375,17.7165354375)" /><rect x="128" y="591" width="2" height="2" style="fill: rgb(0,0,255); fill-opacity: 1.0" transform="matrix(0.1417322835,0,0,0.1417322835,17.7165354375,17.7165354375)" /><rect x="128" y="591" width="2" height="2" style="fill: rgb(0,0,255); fill-opacity: 1.0" transform="matrix(0.1417322835,0,0,0.1417322835,17.7165354375,17.7165354375)" /><rect x="128" y="591" width="2" height="2" style="fill: rgb(0,0,255); fill-opacity: 1.0" transform="matrix(0.1417322835,0,0,0.1417322835,17.7165354375,17.7165354375)" /><rect x="128" y="591" width="2" height="2" style="fill: rgb(0,0,255); fill-opacity: 1.0" transform="matrix(0.1417322835,0,0,0.1417322835,17.7165354375,17.7165354375)" /><rect x="128" y="591" width="2" height="2" style="fill: rgb(0,0,255); fill-opacity: 1.0" transform="matrix(0.1417322835,0,0,0.1417322835,17.7165354375,17.7165354375)" /><rect x="128" y="591" width="2" height="2" style="fill: rgb(0,0,255); fill-opacity: 1.0" transform="matrix(0.1417322835,0,0,0.1417322835,17.7165354375,17.7165354375)" /><rect x="128" y="591" width="207" height="2" style="fill: rgb(0,0,255); fill-opacity: 1.0" transform="matrix(0.1417322835,0,0,0.1417322835,17.7165354375,17.7165354375)" /><rect x="333" y="591" width="2" height="2" style="fill: rgb(0,0,255); fill-opacity: 1.0" transform="matrix(0.1417322835,0,0,0.1417322835,17.7165354375,17.7165354375)" /><rect x="333" y="591" width="2" height="2" style="fill: rgb(0,0,255); fill-opacity: 1.0" transform="matrix(0.1417322835,0,0,0.1417322835,17.7165354375,17.7165354375)" /><rect x="333" y="591" width="2" height="2" style="fill: rgb(0,0,255); fill-opacity: 1.0" transform="matrix(0.1417322835,0,0,0.1417322835,17.7165354375,17.7165354375)" /><rect x="333" y="591" width="2" height="2" style="fill: rgb(0,0,255); fill-opacity: 1.0" transform="matrix(0.1417322835,0,0,0.1417322835,17.7165354375,17.7165354375)" /><rect x="333" y="591" width="2" height="2" style="fill: rgb(0,0,255); fill-opacity: 1.0" transform="matrix(0.1417322835,0,0,0.1417322835,17.7165354375,17.7165354375)" /><rect x="333" y="591" width="2" height="2" style="fill: rgb(0,0,255); fill-opacity: 1.0" transform="matrix(0.1417322835,0,0,0.1417322835,17.7165354375,17.7165354375)" /><rect x="333" y="591" width="2" height="2" style="fill: rgb(0,0,255); fill-opacity: 1.0" transform="matrix(0.1417322835,0,0,0.1417322835,17.7165354375,17.7165354375)" /><rect x="333" y="591" width="2" height="2" style="fill: rgb(0,0,255); fill-opacity: 1.0" transform="matrix(0.1417322835,0,0,0.1417322835,17.7165354375,17.7165354375)" /><rect x="333" y="591" width="2" height="2" style="fill: rgb(0,0,255); fill-opacity: 1.0" transform="matrix(0.1417322835,0,0,0.1417322835,17.7165354375,17.7165354375)" /><rect x="333" y="591" width="2" height="2" style="fill: rgb(0,0,255); fill-opacity: 1.0" transform="matrix(0.1417322835,0,0,0.1417322835,17.7165354375,17.7165354375)" /><rect x="333" y="591" width="2" height="2" style="fill: rgb(0,0,255); fill-opacity: 1.0" transform="matrix(0.1417322835,0,0,0.1417322835,17.7165354375,17.7165354375)" /><rect x="333" y="591" width="2" height="2" style="fill: rgb(0,0,255); fill-opacity: 1.0" transform="matrix(0.1417322835,0,0,0.1417322835,17.7165354375,17.7165354375)" /><rect x="333" y="443" width="2" height="150" style="fill: rgb(0,0,255); fill-opacity: 1.0" transform="matrix(0.1417322835,0,0,0.1417322835,17.7165354375,17.7165354375)" /><rect x="333" y="443" width="2" height="2" style="fill: rgb(0,0,255); fill-opacity: 1.0" transform="matrix(0.1417322835,0,0,0.1417322835,17.7165354375,17.7165354375)" /><rect x="333" y="443" width="2" height="2" style="fill: rgb(0,0,255); fill-opacity: 1.0" transform="matrix(0.1417322835,0,0,0.1417322835,17.7165354375,17.7165354375)" /><rect x="333" y="443" width="2" height="2" style="fill: rgb(0,0,255); fill-opacity: 1.0" transform="matrix(0.1417322835,0,0,0.1417322835,17.7165354375,17.7165354375)" /><rect x="333" y="443" width="2" height="2" style="fill: rgb(0,0,255); fill-opacity: 1.0" transform="matrix(0.1417322835,0,0,0.1417322835,17.7165354375,17.7165354375)" /><rect x="333" y="443" width="2" height="2" style="fill: rgb(0,0,255); fill-opacity: 1.0" transform="matrix(0.1417322835,0,0,0.1417322835,17.7165354375,17.7165354375)" /><rect x="333" y="443" width="2" height="2" style="fill: rgb(0,0,255); fill-opacity: 1.0" transform="matrix(0.1417322835,0,0,0.1417322835,17.7165354375,17.7165354375)" /><rect x="333" y="443" width="2" height="2" style="fill: rgb(0,0,255); fill-opacity: 1.0" transform="matrix(0.1417322835,0,0,0.1417322835,17.7165354375,17.7165354375)" /><rect x="333" y="443" width="2" height="2" style="fill: rgb(0,0,255); fill-opacity: 1.0" transform="matrix(0.1417322835,0,0,0.1417322835,17.7165354375,17.7165354375)" /><rect x="333" y="443" width="2" height="2" style="fill: rgb(0,0,255); fill-opacity: 1.0" transform="matrix(0.1417322835,0,0,0.1417322835,17.7165354375,17.7165354375)" /><rect x="333" y="443" width="2" height="2" style="fill: rgb(0,0,255); fill-opacity: 1.0" transform="matrix(0.1417322835,0,0,0.1417322835,17.7165354375,17.7165354375)" /><rect x="333" y="443" width="2" height="2" style="fill: rgb(0,0,255); fill-opacity: 1.0" transform="matrix(0.1417322835,0,0,0.1417322835,17.7165354375,17.7165354375)" /><rect x="333" y="443" width="2" height="2" style="fill: rgb(0,0,255); fill-opacity: 1.0" transform="matrix(0.1417322835,0,0,0.1417322835,17.7165354375,17.7165354375)" /><rect x="333" y="443" width="53" height="2" style="fill: rgb(0,0,255); fill-opacity: 1.0" transform="matrix(0.1417322835,0,0,0.1417322835,17.7165354375,17.7165354375)" /><rect x="384" y="443" width="2" height="2" style="fill: rgb(0,0,255); fill-opacity: 1.0" transform="matrix(0.1417322835,0,0,0.1417322835,17.7165354375,17.7165354375)" /><rect x="384" y="443" width="2" height="2" style="fill: rgb(0,0,255); fill-opacity: 1.0" transform="matrix(0.1417322835,0,0,0.1417322835,17.7165354375,17.7165354375)" /><rect x="384" y="443" width="2" height="2" style="fill: rgb(0,0,255); fill-opacity: 1.0" transform="matrix(0.1417322835,0,0,0.1417322835,17.7165354375,17.7165354375)" /><rect x="384" y="443" width="2" height="2" style="fill: rgb(0,0,255); fill-opacity: 1.0" transform="matrix(0.1417322835,0,0,0.1417322835,17.7165354375,17.7165354375)" /><rect x="384" y="443" width="2" height="2" style="fill: rgb(0,0,255); fill-opacity: 1.0" transform="matrix(0.1417322835,0,0,0.1417322835,17.7165354375,17.7165354375)" /><rect x="384" y="443" width="2" height="2" style="fill: rgb(0,0,255); fill-opacity: 1.0" transform="matrix(0.1417322835,0,0,0.1417322835,17.7165354375,17.7165354375)" /><rect x="846" y="130" width="2" height="2" style="fill: rgb(0,0,255); fill-opacity: 1.0" transform="matrix(0.1417322835,0,0,0.1417322835,17.7165354375,17.7165354375)" /><rect x="846" y="130" width="2" height="2" style="fill: rgb(0,0,255); fill-opacity: 1.0" transform="matrix(0.1417322835,0,0,0.1417322835,17.7165354375,17.7165354375)" /><rect x="846" y="130" width="2" height="2" style="fill: rgb(0,0,255); fill-opacity: 1.0" transform="matrix(0.1417322835,0,0,0.1417322835,17.7165354375,17.7165354375)" /><rect x="846" y="130" width="2" height="2" style="fill: rgb(0,0,255); fill-opacity: 1.0" transform="matrix(0.1417322835,0,0,0.1417322835,17.7165354375,17.7165354375)" /><rect x="846" y="130" width="2" height="2" style="fill: rgb(0,0,255); fill-opacity: 1.0" transform="matrix(0.1417322835,0,0,0.1417322835,17.7165354375,17.7165354375)" /><rect x="846" y="130" width="2" height="2" style="fill: rgb(0,0,255); fill-opacity: 1.0" transform="matrix(0.1417322835,0,0,0.1417322835,17.7165354375,17.7165354375)" /><rect x="846" y="130" width="520" height="2" style="fill: rgb(0,0,255); fill-opacity: 1.0" transform="matrix(0.1417322835,0,0,0.1417322835,17.7165354375,17.7165354375)" /><rect x="1364" y="130" width="2" height="2" style="fill: rgb(0,0,255); fill-opacity: 1.0" transform="matrix(0.1417322835,0,0,0.1417322835,17.7165354375,17.7165354375)" /><rect x="1364" y="130" width="2" height="2" style="fill: rgb(0,0,255); fill-opacity: 1.0" transform="matrix(0.1417322835,0,0,0.1417322835,17.7165354375,17.7165354375)" /><rect x="1364" y="130" width="2" height="2" style="fill: rgb(0,0,255); fill-opacity: 1.0" transform="matrix(0.1417322835,0,0,0.1417322835,17.7165354375,17.7165354375)" /><rect x="1364" y="130" width="2" height="2" style="fill: rgb(0,0,255); fill-opacity: 1.0" transform="matrix(0.1417322835,0,0,0.1417322835,17.7165354375,17.7165354375)" /><rect x="1364" y="130" width="2" height="2" style="fill: rgb(0,0,255); fill-opacity: 1.0" transform="matrix(0.1417322835,0,0,0.1417322835,17.7165354375,17.7165354375)" /><rect x="1364" y="130" width="2" height="2" style="fill: rgb(0,0,255); fill-opacity: 1.0" transform="matrix(0.1417322835,0,0,0.1417322835,17.7165354375,17.7165354375)" /><rect x="1364" y="130" width="2" height="2" style="fill: rgb(0,0,255); fill-opacity: 1.0" transform="matrix(0.1417322835,0,0,0.1417322835,17.7165354375,17.7165354375)" /><rect x="1364" y="130" width="2" height="2" style="fill: rgb(0,0,255); fill-opacity: 1.0" transform="matrix(0.1417322835,0,0,0.1417322835,17.7165354375,17.7165354375)" /><rect x="1364" y="130" width="2" height="2" style="fill: rgb(0,0,255); fill-opacity: 1.0" transform="matrix(0.1417322835,0,0,0.1417322835,17.7165354375,17.7165354375)" /><rect x="1364" y="130" width="2" height="2" style="fill: rgb(0,0,255); fill-opacity: 1.0" transform="matrix(0.1417322835,0,0,0.1417322835,17.7165354375,17.7165354375)" /><rect x="1364" y="130" width="2" height="2" style="fill: rgb(0,0,255); fill-opacity: 1.0" transform="matrix(0.1417322835,0,0,0.1417322835,17.7165354375,17.7165354375)" /><rect x="1364" y="130" width="2" height="2" style="fill: rgb(0,0,255); fill-opacity: 1.0" transform="matrix(0.1417322835,0,0,0.1417322835,17.7165354375,17.7165354375)" /><rect x="1364" y="130" width="2" height="369" style="fill: rgb(0,0,255); fill-opacity: 1.0" transform="matrix(0.1417322835,0,0,0.1417322835,17.7165354375,17.7165354375)" /><rect x="1364" y="497" width="2" height="2" style="fill: rgb(0,0,255); fill-opacity: 1.0" transform="matrix(0.1417322835,0,0,0.1417322835,17.7165354375,17.7165354375)" /><rect x="1364" y="497" width="2" height="2" style="fill: rgb(0,0,255); fill-opacity: 1.0" transform="matrix(0.1417322835,0,0,0.1417322835,17.7165354375,17.7165354375)" /><rect x="1364" y="497" width="2" height="2" style="fill: rgb(0,0,255); fill-opacity: 1.0" transform="matrix(0.1417322835,0,0,0.1417322835,17.7165354375,17.7165354375)" /><rect x="1364" y="497" width="2" height="2" style="fill: rgb(0,0,255); fill-opacity: 1.0" transform="matrix(0.1417322835,0,0,0.1417322835,17.7165354375,17.7165354375)" /><rect x="1364" y="497" width="2" height="2" style="fill: rgb(0,0,255); fill-opacity: 1.0" transform="matrix(0.1417322835,0,0,0.1417322835,17.7165354375,17.7165354375)" /><rect x="1364" y="497" width="2" height="2" style="fill: rgb(0,0,255); fill-opacity: 1.0" transform="matrix(0.1417322835,0,0,0.1417322835,17.7165354375,17.7165354375)" /><rect x="1364" y="497" width="2" height="2" style="fill: rgb(0,0,255); fill-opacity: 1.0" transform="matrix(0.1417322835,0,0,0.1417322835,17.7165354375,17.7165354375)" /><rect x="1364" y="497" width="2" height="2" style="fill: rgb(0,0,255); fill-opacity: 1.0" transform="matrix(0.1417322835,0,0,0.1417322835,17.7165354375,17.7165354375)" /><rect x="1364" y="497" width="2" height="2" style="fill: rgb(0,0,255); fill-opacity: 1.0" transform="matrix(0.1417322835,0,0,0.1417322835,17.7165354375,17.7165354375)" /><rect x="1364" y="497" width="2" height="2" style="fill: rgb(0,0,255); fill-opacity: 1.0" transform="matrix(0.1417322835,0,0,0.1417322835,17.7165354375,17.7165354375)" /><rect x="1364" y="497" width="2" height="2" style="fill: rgb(0,0,255); fill-opacity: 1.0" transform="matrix(0.1417322835,0,0,0.1417322835,17.7165354375,17.7165354375)" /><rect x="1364" y="497" width="2" height="2" style="fill: rgb(0,0,255); fill-opacity: 1.0" transform="matrix(0.1417322835,0,0,0.1417322835,17.7165354375,17.7165354375)" /><rect x="1314" y="497" width="52" height="2" style="fill: rgb(0,0,255); fill-opacity: 1.0" transform="matrix(0.1417322835,0,0,0.1417322835,17.7165354375,17.7165354375)" /><rect x="1314" y="497" width="2" height="2" style="fill: rgb(0,0,255); fill-opacity: 1.0" transform="matrix(0.1417322835,0,0,0.1417322835,17.7165354375,17.7165354375)" /><rect x="1314" y="497" width="2" height="2" style="fill: rgb(0,0,255); fill-opacity: 1.0" transform="matrix(0.1417322835,0,0,0.1417322835,17.7165354375,17.7165354375)" /><rect x="1314" y="497" width="2" height="2" style="fill: rgb(0,0,255); fill-opacity: 1.0" transform="matrix(0.1417322835,0,0,0.1417322835,17.7165354375,17.7165354375)" /><rect x="1314" y="497" width="2" height="2" style="fill: rgb(0,0,255); fill-opacity: 1.0" transform="matrix(0.1417322835,0,0,0.1417322835,17.7165354375,17.7165354375)" /><rect x="1314" y="497" width="2" height="2" style="fill: rgb(0,0,255); fill-opacity: 1.0" transform="matrix(0.1417322835,0,0,0.1417322835,17.7165354375,17.7165354375)" /><rect x="1314" y="497" width="2" height="2" style="fill: rgb(0,0,255); fill-opacity: 1.0" transform="matrix(0.1417322835,0,0,0.1417322835,17.7165354375,17.7165354375)" /><rect x="1314" y="497" width="2" height="2" style="fill: rgb(0,0,255); fill-opacity: 1.0" transform="matrix(0.1417322835,0,0,0.1417322835,17.7165354375,17.7165354375)" /><rect x="1314" y="497" width="2" height="2" style="fill: rgb(0,0,255); fill-opacity: 1.0" transform="matrix(0.1417322835,0,0,0.1417322835,17.7165354375,17.7165354375)" /><rect x="1314" y="497" width="2" height="2" style="fill: rgb(0,0,255); fill-opacity: 1.0" transform="matrix(0.1417322835,0,0,0.1417322835,17.7165354375,17.7165354375)" /><rect x="1314" y="497" width="2" height="2" style="fill: rgb(0,0,255); fill-opacity: 1.0" transform="matrix(0.1417322835,0,0,0.1417322835,17.7165354375,17.7165354375)" /><rect x="1314" y="497" width="2" height="2" style="fill: rgb(0,0,255); fill-opacity: 1.0" transform="matrix(0.1417322835,0,0,0.1417322835,17.7165354375,17.7165354375)" /><rect x="1314" y="497" width="2" height="2" style="fill: rgb(0,0,255); fill-opacity: 1.0" transform="matrix(0.1417322835,0,0,0.1417322835,17.7165354375,17.7165354375)" /><rect x="1314" y="497" width="2" height="51" style="fill: rgb(0,0,255); fill-opacity: 1.0" transform="matrix(0.1417322835,0,0,0.1417322835,17.7165354375,17.7165354375)" /><rect x="1314" y="546" width="2" height="2" style="fill: rgb(0,0,255); fill-opacity: 1.0" transform="matrix(0.1417322835,0,0,0.1417322835,17.7165354375,17.7165354375)" /><rect x="1314" y="546" width="2" height="2" style="fill: rgb(0,0,255); fill-opacity: 1.0" transform="matrix(0.1417322835,0,0,0.1417322835,17.7165354375,17.7165354375)" /><rect x="1314" y="546" width="2" height="2" style="fill: rgb(0,0,255); fill-opacity: 1.0" transform="matrix(0.1417322835,0,0,0.1417322835,17.7165354375,17.7165354375)" /><rect x="1314" y="546" width="2" height="2" style="fill: rgb(0,0,255); fill-opacity: 1.0" transform="matrix(0.1417322835,0,0,0.1417322835,17.7165354375,17.7165354375)" /><rect x="1314" y="546" width="2" height="2" style="fill: rgb(0,0,255); fill-opacity: 1.0" transform="matrix(0.1417322835,0,0,0.1417322835,17.7165354375,17.7165354375)" /><rect x="1314" y="546" width="2" height="2" style="fill: rgb(0,0,255); fill-opacity: 1.0" transform="matrix(0.1417322835,0,0,0.1417322835,17.7165354375,17.7165354375)" /><rect x="1314" y="546" width="2" height="2" style="fill: rgb(0,0,255); fill-opacity: 1.0" transform="matrix(0.1417322835,0,0,0.1417322835,17.7165354375,17.7165354375)" /><rect x="1314" y="546" width="2" height="2" style="fill: rgb(0,0,255); fill-opacity: 1.0" transform="matrix(0.1417322835,0,0,0.1417322835,17.7165354375,17.7165354375)" /><rect x="1314" y="546" width="2" height="2" style="fill: rgb(0,0,255); fill-opacity: 1.0" transform="matrix(0.1417322835,0,0,0.1417322835,17.7165354375,17.7165354375)" /><rect x="1314" y="546" width="2" height="2" style="fill: rgb(0,0,255); fill-opacity: 1.0" transform="matrix(0.1417322835,0,0,0.1417322835,17.7165354375,17.7165354375)" /><rect x="1314" y="546" width="2" height="2" style="fill: rgb(0,0,255); fill-opacity: 1.0" transform="matrix(0.1417322835,0,0,0.1417322835,17.7165354375,17.7165354375)" /><rect x="1314" y="546" width="2" height="2" style="fill: rgb(0,0,255); fill-opacity: 1.0" transform="matrix(0.1417322835,0,0,0.1417322835,17.7165354375,17.7165354375)" /><rect x="845" y="546" width="471" height="2" style="fill: rgb(0,0,255); fill-opacity: 1.0" transform="matrix(0.1417322835,0,0,0.1417322835,17.7165354375,17.7165354375)" /><rect x="845" y="546" width="2" height="2" style="fill: rgb(0,0,255); fill-opacity: 1.0" transform="matrix(0.1417322835,0,0,0.1417322835,17.7165354375,17.7165354375)" /><rect x="845" y="546" width="2" height="2" style="fill: rgb(0,0,255); fill-opacity: 1.0" transform="matrix(0.1417322835,0,0,0.1417322835,17.7165354375,17.7165354375)" /><rect x="845" y="546" width="2" height="2" style="fill: rgb(0,0,255); fill-opacity: 1.0" transform="matrix(0.1417322835,0,0,0.1417322835,17.7165354375,17.7165354375)" /><rect x="845" y="546" width="2" height="2" style="fill: rgb(0,0,255); fill-opacity: 1.0" transform="matrix(0.1417322835,0,0,0.1417322835,17.7165354375,17.7165354375)" /><rect x="845" y="546" width="2" height="2" style="fill: rgb(0,0,255); fill-opacity: 1.0" transform="matrix(0.1417322835,0,0,0.1417322835,17.7165354375,17.7165354375)" /><rect x="845" y="546" width="2" height="2" style="fill: rgb(0,0,255); fill-opacity: 1.0" transform="matrix(0.1417322835,0,0,0.1417322835,17.7165354375,17.7165354375)" /><rect x="845" y="546" width="2" height="2" style="fill: rgb(0,0,255); fill-opacity: 1.0" transform="matrix(0.1417322835,0,0,0.1417322835,17.7165354375,17.7165354375)" /><rect x="845" y="546" width="2" height="2" style="fill: rgb(0,0,255); fill-opacity: 1.0" transform="matrix(0.1417322835,0,0,0.1417322835,17.7165354375,17.7165354375)" /><rect x="845" y="546" width="2" height="2" style="fill: rgb(0,0,255); fill-opacity: 1.0" transform="matrix(0.1417322835,0,0,0.1417322835,17.7165354375,17.7165354375)" /><rect x="845" y="546" width="2" height="2" style="fill: rgb(0,0,255); fill-opacity: 1.0" transform="matrix(0.1417322835,0,0,0.1417322835,17.7165354375,17.7165354375)" /><rect x="845" y="546" width="2" height="2" style="fill: rgb(0,0,255); fill-opacity: 1.0" transform="matrix(0.1417322835,0,0,0.1417322835,17.7165354375,17.7165354375)" /><rect x="845" y="546" width="2" height="2" style="fill: rgb(0,0,255); fill-opacity: 1.0" transform="matrix(0.1417322835,0,0,0.1417322835,17.7165354375,17.7165354375)" /><rect x="845" y="446" width="2" height="102" style="fill: rgb(0,0,255); fill-opacity: 1.0" transform="matrix(0.1417322835,0,0,0.1417322835,17.7165354375,17.7165354375)" /><rect x="845" y="446" width="2" height="2" style="fill: rgb(0,0,255); fill-opacity: 1.0" transform="matrix(0.1417322835,0,0,0.1417322835,17.7165354375,17.7165354375)" /><rect x="845" y="446" width="2" height="2" style="fill: rgb(0,0,255); fill-opacity: 1.0" transform="matrix(0.1417322835,0,0,0.1417322835,17.7165354375,17.7165354375)" /><rect x="845" y="446" width="2" height="2" style="fill: rgb(0,0,255); fill-opacity: 1.0" transform="matrix(0.1417322835,0,0,0.1417322835,17.7165354375,17.7165354375)" /><rect x="845" y="446" width="2" height="2" style="fill: rgb(0,0,255); fill-opacity: 1.0" transform="matrix(0.1417322835,0,0,0.1417322835,17.7165354375,17.7165354375)" /><rect x="845" y="446" width="2" height="2" style="fill: rgb(0,0,255); fill-opacity: 1.0" transform="matrix(0.1417322835,0,0,0.1417322835,17.7165354375,17.7165354375)" /><rect x="845" y="446" width="2" height="2" style="fill: rgb(0,0,255); fill-opacity: 1.0" transform="matrix(0.1417322835,0,0,0.1417322835,17.7165354375,17.7165354375)" /><rect x="845" y="446" width="2" height="2" style="fill: rgb(0,0,255); fill-opacity: 1.0" transform="matrix(0.1417322835,0,0,0.1417322835,17.7165354375,17.7165354375)" /><rect x="845" y="446" width="2" height="2" style="fill: rgb(0,0,255); fill-opacity: 1.0" transform="matrix(0.1417322835,0,0,0.1417322835,17.7165354375,17.7165354375)" /><rect x="845" y="446" width="2" height="2" style="fill: rgb(0,0,255); fill-opacity: 1.0" transform="matrix(0.1417322835,0,0,0.1417322835,17.7165354375,17.7165354375)" /><rect x="845" y="446" width="2" height="2" style="fill: rgb(0,0,255); fill-opacity: 1.0" transform="matrix(0.1417322835,0,0,0.1417322835,17.7165354375,17.7165354375)" /><rect x="845" y="446" width="2" height="2" style="fill: rgb(0,0,255); fill-opacity: 1.0" transform="matrix(0.1417322835,0,0,0.1417322835,17.7165354375,17.7165354375)" /><rect x="845" y="446" width="2" height="2" style="fill: rgb(0,0,255); fill-opacity: 1.0" transform="matrix(0.1417322835,0,0,0.1417322835,17.7165354375,17.7165354375)" /><rect x="845" y="446" width="3" height="2" style="fill: rgb(0,0,255); fill-opacity: 1.0" transform="matrix(0.1417322835,0,0,0.1417322835,17.7165354375,17.7165354375)" /><rect x="846" y="446" width="2" height="2" style="fill: rgb(0,0,255); fill-opacity: 1.0" transform="matrix(0.1417322835,0,0,0.1417322835,17.7165354375,17.7165354375)" /><rect x="846" y="446" width="2" height="2" style="fill: rgb(0,0,255); fill-opacity: 1.0" transform="matrix(0.1417322835,0,0,0.1417322835,17.7165354375,17.7165354375)" /><rect x="846" y="446" width="2" height="2" style="fill: rgb(0,0,255); fill-opacity: 1.0" transform="matrix(0.1417322835,0,0,0.1417322835,17.7165354375,17.7165354375)" /><rect x="846" y="446" width="2" height="2" style="fill: rgb(0,0,255); fill-opacity: 1.0" transform="matrix(0.1417322835,0,0,0.1417322835,17.7165354375,17.7165354375)" /><rect x="846" y="446" width="2" height="2" style="fill: rgb(0,0,255); fill-opacity: 1.0" transform="matrix(0.1417322835,0,0,0.1417322835,17.7165354375,17.7165354375)" /><rect x="846" y="446" width="2" height="2" style="fill: rgb(0,0,255); fill-opacity: 1.0" transform="matrix(0.1417322835,0,0,0.1417322835,17.7165354375,17.7165354375)" /></svg>
